<svg width="2167" height="639" viewBox="0 0 2167 639" fill="none" xmlns="http://www.w3.org/2000/svg">
<mask id="path-1-inside-1_5_11" fill="white">
<path d="M583 347.5C583 385.78 575.46 423.686 560.811 459.052C546.162 494.419 524.69 526.553 497.622 553.622C470.553 580.69 438.419 602.162 403.052 616.811C367.686 631.46 329.78 639 291.5 639C253.22 639 215.314 631.46 179.948 616.811C144.581 602.162 112.447 580.69 85.3784 553.622C58.3101 526.553 36.8384 494.419 22.1891 459.052C7.53986 423.686 -3.34657e-06 385.78 0 347.5L117.589 347.5C117.589 370.338 122.088 392.953 130.827 414.053C139.567 435.153 152.377 454.324 168.526 470.474C184.676 486.623 203.847 499.433 224.947 508.173C246.047 516.912 268.662 521.411 291.5 521.411C314.338 521.411 336.953 516.912 358.053 508.173C379.153 499.433 398.324 486.623 414.474 470.474C430.623 454.324 443.433 435.153 452.173 414.053C460.912 392.953 465.411 370.338 465.411 347.5H583Z"/>
</mask>
<path d="M583 347.5C583 385.78 575.46 423.686 560.811 459.052C546.162 494.419 524.69 526.553 497.622 553.622C470.553 580.69 438.419 602.162 403.052 616.811C367.686 631.46 329.78 639 291.5 639C253.22 639 215.314 631.46 179.948 616.811C144.581 602.162 112.447 580.69 85.3784 553.622C58.3101 526.553 36.8384 494.419 22.1891 459.052C7.53986 423.686 -3.34657e-06 385.78 0 347.5L117.589 347.5C117.589 370.338 122.088 392.953 130.827 414.053C139.567 435.153 152.377 454.324 168.526 470.474C184.676 486.623 203.847 499.433 224.947 508.173C246.047 516.912 268.662 521.411 291.5 521.411C314.338 521.411 336.953 516.912 358.053 508.173C379.153 499.433 398.324 486.623 414.474 470.474C430.623 454.324 443.433 435.153 452.173 414.053C460.912 392.953 465.411 370.338 465.411 347.5H583Z" stroke="white" stroke-width="206" mask="url(#path-1-inside-1_5_11)"/>
<rect x="465" y="118" width="118" height="230" fill="white"/>
<rect x="118" y="118" width="347" height="111" fill="white"/>
<rect width="118" height="118" fill="#23AAE2"/>
<path d="M834 267C826.4 267 820.1 264.7 815.1 260.1C810.3 255.3 807.9 249.4 807.9 242.4C807.9 235.4 810.3 229.6 815.1 225C820.1 220.2 826.4 217.8 834 217.8C841.4 217.8 847.5 220.2 852.3 225C857.1 229.6 859.5 235.4 859.5 242.4C859.5 249.4 857.1 255.3 852.3 260.1C847.5 264.7 841.4 267 834 267ZM854.7 480.3C854.7 498.7 850.1 511.9 840.9 519.9C831.9 528.1 818.9 532.2 801.9 532.2H783.3V496.5H795.3C801.7 496.5 806.2 495.2 808.8 492.6C811.4 490.2 812.7 486.2 812.7 480.6V286.8H854.7V480.3ZM885.396 369.3C885.396 352.5 888.696 337.6 895.296 324.6C902.096 311.6 911.196 301.6 922.596 294.6C934.196 287.6 947.096 284.1 961.296 284.1C973.696 284.1 984.496 286.6 993.696 291.6C1003.1 296.6 1010.6 302.9 1016.2 310.5V286.8H1058.5V453H1016.2V428.7C1010.8 436.5 1003.3 443 993.696 448.2C984.296 453.2 973.396 455.7 960.996 455.7C946.996 455.7 934.196 452.1 922.596 444.9C911.196 437.7 902.096 427.6 895.296 414.6C888.696 401.4 885.396 386.3 885.396 369.3ZM1016.2 369.9C1016.2 359.7 1014.2 351 1010.2 343.8C1006.2 336.4 1000.8 330.8 993.996 327C987.196 323 979.896 321 972.096 321C964.296 321 957.096 322.9 950.496 326.7C943.896 330.5 938.496 336.1 934.296 343.5C930.296 350.7 928.296 359.3 928.296 369.3C928.296 379.3 930.296 388.1 934.296 395.7C938.496 403.1 943.896 408.8 950.496 412.8C957.296 416.8 964.496 418.8 972.096 418.8C979.896 418.8 987.196 416.9 993.996 413.1C1000.8 409.1 1006.2 403.5 1010.2 396.3C1014.2 388.9 1016.2 380.1 1016.2 369.9ZM1191.62 284.4C1211.42 284.4 1227.42 290.7 1239.62 303.3C1251.82 315.7 1257.92 333.1 1257.92 355.5V453H1215.92V361.2C1215.92 348 1212.62 337.9 1206.02 330.9C1199.42 323.7 1190.42 320.1 1179.02 320.1C1167.42 320.1 1158.22 323.7 1151.42 330.9C1144.82 337.9 1141.52 348 1141.52 361.2V453H1099.52V286.8H1141.52V307.5C1147.12 300.3 1154.22 294.7 1162.82 290.7C1171.62 286.5 1181.22 284.4 1191.62 284.4ZM1287.06 369.3C1287.06 352.5 1290.36 337.6 1296.96 324.6C1303.76 311.6 1312.86 301.6 1324.26 294.6C1335.86 287.6 1348.76 284.1 1362.96 284.1C1375.36 284.1 1386.16 286.6 1395.36 291.6C1404.76 296.6 1412.26 302.9 1417.86 310.5V286.8H1460.16V453H1417.86V428.7C1412.46 436.5 1404.96 443 1395.36 448.2C1385.96 453.2 1375.06 455.7 1362.66 455.7C1348.66 455.7 1335.86 452.1 1324.26 444.9C1312.86 437.7 1303.76 427.6 1296.96 414.6C1290.36 401.4 1287.06 386.3 1287.06 369.3ZM1417.86 369.9C1417.86 359.7 1415.86 351 1411.86 343.8C1407.86 336.4 1402.46 330.8 1395.66 327C1388.86 323 1381.56 321 1373.76 321C1365.96 321 1358.76 322.9 1352.16 326.7C1345.56 330.5 1340.16 336.1 1335.96 343.5C1331.96 350.7 1329.96 359.3 1329.96 369.3C1329.96 379.3 1331.96 388.1 1335.96 395.7C1340.16 403.1 1345.56 408.8 1352.16 412.8C1358.96 416.8 1366.16 418.8 1373.76 418.8C1381.56 418.8 1388.86 416.9 1395.66 413.1C1402.46 409.1 1407.86 403.5 1411.86 396.3C1415.86 388.9 1417.86 380.1 1417.86 369.9ZM1543.18 311.1C1548.58 303.1 1555.98 296.6 1565.38 291.6C1574.98 286.6 1585.88 284.1 1598.08 284.1C1612.28 284.1 1625.08 287.6 1636.48 294.6C1648.08 301.6 1657.18 311.6 1663.78 324.6C1670.58 337.4 1673.98 352.3 1673.98 369.3C1673.98 386.3 1670.58 401.4 1663.78 414.6C1657.18 427.6 1648.08 437.7 1636.48 444.9C1625.08 452.1 1612.28 455.7 1598.08 455.7C1585.68 455.7 1574.78 453.3 1565.38 448.5C1556.18 443.5 1548.78 437.1 1543.18 429.3V453H1501.18V231H1543.18V311.1ZM1631.08 369.3C1631.08 359.3 1628.98 350.7 1624.78 343.5C1620.78 336.1 1615.38 330.5 1608.58 326.7C1601.98 322.9 1594.78 321 1586.98 321C1579.38 321 1572.18 323 1565.38 327C1558.78 330.8 1553.38 336.4 1549.18 343.8C1545.18 351.2 1543.18 359.9 1543.18 369.9C1543.18 379.9 1545.18 388.6 1549.18 396C1553.38 403.4 1558.78 409.1 1565.38 413.1C1572.18 416.9 1579.38 418.8 1586.98 418.8C1594.78 418.8 1601.98 416.8 1608.58 412.8C1615.38 408.8 1620.78 403.1 1624.78 395.7C1628.98 388.3 1631.08 379.5 1631.08 369.3ZM1863.5 286.8L1760.6 531.6H1715.9L1751.9 448.8L1685.3 286.8H1732.4L1775.3 402.9L1818.8 286.8H1863.5ZM1935.04 321.3V401.7C1935.04 407.3 1936.34 411.4 1938.94 414C1941.74 416.4 1946.34 417.6 1952.74 417.6H1972.24V453H1945.84C1910.44 453 1892.74 435.8 1892.74 401.4V321.3H1872.94V286.8H1892.74V245.7H1935.04V286.8H1972.24V321.3H1935.04ZM2156.95 366.3C2156.95 372.3 2156.55 377.7 2155.75 382.5H2034.25C2035.25 394.5 2039.45 403.9 2046.85 410.7C2054.25 417.5 2063.35 420.9 2074.15 420.9C2089.75 420.9 2100.85 414.2 2107.45 400.8H2152.75C2147.95 416.8 2138.75 430 2125.15 440.4C2111.55 450.6 2094.85 455.7 2075.05 455.7C2059.05 455.7 2044.65 452.2 2031.85 445.2C2019.25 438 2009.35 427.9 2002.15 414.9C1995.15 401.9 1991.65 386.9 1991.65 369.9C1991.65 352.7 1995.15 337.6 2002.15 324.6C2009.15 311.6 2018.95 301.6 2031.55 294.6C2044.15 287.6 2058.65 284.1 2075.05 284.1C2090.85 284.1 2104.95 287.5 2117.35 294.3C2129.95 301.1 2139.65 310.8 2146.45 323.4C2153.45 335.8 2156.95 350.1 2156.95 366.3ZM2113.45 354.3C2113.25 343.5 2109.35 334.9 2101.75 328.5C2094.15 321.9 2084.85 318.6 2073.85 318.6C2063.45 318.6 2054.65 321.8 2047.45 328.2C2040.45 334.4 2036.15 343.1 2034.55 354.3H2113.45Z" fill="white"/>
</svg>
